<?xml version="1.0" encoding="utf-8"?>
<!-- Generator: Adobe Illustrator 27.5.0, SVG Export Plug-In . SVG Version: 6.00 Build 0)  -->
<svg version="1.1" xmlns="http://www.w3.org/2000/svg" xmlns:xlink="http://www.w3.org/1999/xlink" x="0px" y="0px"
	 viewBox="0 0 500 500" style="enable-background:new 0 0 500 500;" xml:space="preserve">
<g id="BACKGROUND">
	<rect style="fill:#FFFFFF;" width="500" height="500"/>
	<g>
		<path style="fill:#D8DCFE;" d="M152.526,448.69c0,0-31.901-3.602-36.713-43.146S40,343.377,37,284.189
			s22.367-83.495,46.684-93.342s21.09-60.861,20.703-104.354s34.834-85.726,88.837-63.716C247.227,44.786,250,111.5,278,119
			s58-51.397,111-42.199s88,41.015,76,91.107s-57,74.459-40,122.275s37.927,53.614,37,91.105
			C461.5,401.5,502.052,466.38,152.526,448.69z"/>
		<path style="fill:#D8DCFE;" d="M77.373,107c0,0,5.016,14.5,4.322,37C81,166.5,60.5,189.785,45,193.392
			C29.5,197,25.515,167,36.757,157.5S45,132,46,112.5S73.68,87.905,77.373,107z"/>
		<path style="fill:#D8DCFE;" d="M443,242c0,0-12.5,20.519-6.5,39.259c6,18.741,30.5,23.118,34.5,2.929S467.5,217.5,443,242z"/>
	</g>
</g>
<g id="OBJECTS">
	<g>
		<ellipse style="fill:#9BA3DD;" cx="253.25" cy="454.624" rx="230.25" ry="8.17"/>
		<path style="fill:#ACB2F3;" d="M334.67,73.598c0.076-1.099,0.129-2.203,0.129-3.321c0-26.233-21.267-47.5-47.5-47.5
			s-47.5,21.266-47.5,47.5c0,1.118,0.053,2.223,0.129,3.321h-91.403v377.561h282V73.598H334.67z"/>
		<rect x="165.856" y="92.96" style="fill:#FFFFFF;" width="247.335" height="337.9"/>
		<path style="fill:#D6E0FC;" d="M306.253,79.849c-1.052-4.679-9.031-8.318-18.729-8.318c-9.697,0-17.676,3.639-18.729,8.318
			h-29.364v21.605h96.186V79.849H306.253z M287.524,79.026c-1.229,0-2.225-0.996-2.225-2.225c0-1.229,0.996-2.225,2.225-2.225
			c1.229,0,2.225,0.996,2.225,2.225C289.749,78.03,288.753,79.026,287.524,79.026z"/>
		<path style="fill:none;stroke:#ACB2F3;stroke-width:2.2215;stroke-miterlimit:10;" d="M228.39,210.184h-28.056
			c-3.927,0-7.11-3.183-7.11-7.11v-28.056c0-3.927,3.183-7.11,7.11-7.11h28.056c3.927,0,7.11,3.183,7.11,7.11v28.056
			C235.5,207.001,232.317,210.184,228.39,210.184z"/>
		
			<polyline style="fill:none;stroke:#5252BF;stroke-width:2.851;stroke-linecap:round;stroke-linejoin:round;stroke-miterlimit:10;" points="
			197.128,186.283 211.74,199.251 246.664,172.606 		"/>
		<path style="fill:none;stroke:#ACB2F3;stroke-width:2.2215;stroke-miterlimit:10;" d="M228.39,302.397h-28.056
			c-3.927,0-7.11-3.183-7.11-7.11v-28.056c0-3.927,3.183-7.11,7.11-7.11h28.056c3.927,0,7.11,3.183,7.11,7.11v28.056
			C235.5,299.214,232.317,302.397,228.39,302.397z"/>
		
			<polyline style="fill:none;stroke:#5252BF;stroke-width:2.851;stroke-linecap:round;stroke-linejoin:round;stroke-miterlimit:10;" points="
			197.128,278.496 211.74,291.464 246.664,264.819 		"/>
		<path style="fill:none;stroke:#ACB2F3;stroke-width:2.2215;stroke-miterlimit:10;" d="M228.39,405.544h-28.056
			c-3.927,0-7.11-3.183-7.11-7.11v-28.056c0-3.927,3.183-7.11,7.11-7.11h28.056c3.927,0,7.11,3.183,7.11,7.11v28.056
			C235.5,402.361,232.317,405.544,228.39,405.544z"/>
		
			<polyline style="fill:none;stroke:#5252BF;stroke-width:2.851;stroke-linecap:round;stroke-linejoin:round;stroke-miterlimit:10;" points="
			197.128,381.643 211.74,394.611 246.664,367.966 		"/>
		<path style="fill:#ACB2F3;" d="M380.348,178.464H247.816c-0.636,0-1.152-0.516-1.152-1.152v-3.555
			c0-0.636,0.516-1.152,1.152-1.152h132.532c0.636,0,1.152,0.516,1.152,1.152v3.555C381.5,177.948,380.984,178.464,380.348,178.464z
			"/>
		<path style="fill:#ACB2F3;" d="M355.79,132.359H223.258c-0.636,0-1.152-0.516-1.152-1.152v-3.554c0-0.636,0.516-1.152,1.152-1.152
			H355.79c0.636,0,1.152,0.516,1.152,1.152v3.554C356.942,131.843,356.426,132.359,355.79,132.359z"/>
		<path style="fill:#ACB2F3;" d="M380.348,188.857H247.816c-0.636,0-1.152-0.516-1.152-1.152v-3.555
			c0-0.636,0.516-1.152,1.152-1.152h132.532c0.636,0,1.152,0.516,1.152,1.152v3.555C381.5,188.342,380.984,188.857,380.348,188.857z
			"/>
		<path style="fill:#ACB2F3;" d="M334.363,199.251h-86.255c-0.798,0-1.444-0.647-1.444-1.444v-2.97c0-0.798,0.647-1.444,1.444-1.444
			h86.255c0.798,0,1.444,0.647,1.444,1.444v2.97C335.808,198.604,335.161,199.251,334.363,199.251z"/>
		<path style="fill:#ACB2F3;" d="M380.348,273.795H247.816c-0.636,0-1.152-0.516-1.152-1.152v-3.555
			c0-0.636,0.516-1.152,1.152-1.152h132.532c0.636,0,1.152,0.516,1.152,1.152v3.555C381.5,273.28,380.984,273.795,380.348,273.795z"
			/>
		<path style="fill:#ACB2F3;" d="M380.348,284.189H247.816c-0.636,0-1.152-0.516-1.152-1.152v-3.555
			c0-0.636,0.516-1.152,1.152-1.152h132.532c0.636,0,1.152,0.516,1.152,1.152v3.555C381.5,283.673,380.984,284.189,380.348,284.189z
			"/>
		<path style="fill:#ACB2F3;" d="M334.363,294.582h-86.255c-0.798,0-1.444-0.647-1.444-1.444v-2.97c0-0.798,0.647-1.444,1.444-1.444
			h86.255c0.798,0,1.444,0.647,1.444,1.444v2.97C335.808,293.935,335.161,294.582,334.363,294.582z"/>
		<path style="fill:#ACB2F3;" d="M380.348,376.942H247.816c-0.636,0-1.152-0.516-1.152-1.152v-3.555
			c0-0.636,0.516-1.152,1.152-1.152h132.532c0.636,0,1.152,0.516,1.152,1.152v3.555C381.5,376.426,380.984,376.942,380.348,376.942z
			"/>
		<path style="fill:#ACB2F3;" d="M380.348,387.335H247.816c-0.636,0-1.152-0.516-1.152-1.152v-3.555
			c0-0.636,0.516-1.152,1.152-1.152h132.532c0.636,0,1.152,0.516,1.152,1.152v3.555C381.5,386.819,380.984,387.335,380.348,387.335z
			"/>
		<path style="fill:#ACB2F3;" d="M334.363,397.728h-86.255c-0.798,0-1.444-0.647-1.444-1.444v-2.97c0-0.798,0.647-1.444,1.444-1.444
			h86.255c0.798,0,1.444,0.647,1.444,1.444v2.97C335.808,397.082,335.161,397.728,334.363,397.728z"/>
	</g>
	<g>
		<path style="fill:#29265C;" d="M134.313,147.01c0,0-0.823-7.203-6.586-8.027c-5.763-0.823-11.319-0.617-15.024-1.646
			c-3.705-1.029-24.285-2.47-29.019,23.462c-2.058,12.143,1.441,25.726,0,30.048c-1.441,4.322-10.702,21.198-11.319,32.518
			c-0.618,11.319,8.232,17.699,8.232,17.699s-0.823-5.968,0.206-10.908c0,0,0.206,23.256,36.016,24.491
			c14.201,0,18.317-15.847,14.818-32.518c-3.499-16.67-8.026-25.52-5.351-37.045c2.675-11.525,5.351-11.731,8.026-19.963
			S140.075,149.274,134.313,147.01z"/>
		<path style="fill:#E5B389;" d="M129.785,153.596c0,0,1.509,6.586,1.509,10.016c0,3.43,1.784,5.763,3.156,7.546
			c1.372,1.784,2.058,3.293,0,4.665c-2.058,1.372-2.607,2.058-3.43,3.567c-0.823,1.509-0.823,9.193-3.979,10.153
			c-3.156,0.96-9.467,0.274-13.446-2.195c0,0-1.912,4.496-0.951,9.985c0,0-3.789-2.708-7.016-3.654
			c-3.257-0.955-3.283-12.093-1.911-14.838c0,0-4.391-3.43-3.019-9.055c1.372-5.625,3.979-6.037,5.488-5.488
			c1.509,0.549,1.509,5.763,0.412,8.369l3.018,0.274l1.372-4.802c0,0,4.463-4.665,7.103-7.821c0,0-1.751,3.018-2.986,5.077
			C115.104,165.395,123.885,161.553,129.785,153.596z"/>
		<path style="fill:#5252BF;" d="M103.03,258.969c0,0-3.138,1.441-2.598-2.676c0.54-4.116-2.341-8.438-6.046-19.963
			c-3.704-11.525-5.968-31.351,0-39.652c5.968-8.301,17.978-0.892,23.704,5.488c5.726,6.38,24.455,20.169,27.542,21.198
			c0,0-1.029,10.085,0,13.378l-20.375-6.997c0,0,1.646,5.968-3.087,10.908c0,0,1.852,14.612-0.206,17.082
			c-2.058,2.47-9.467,1.479-9.467,1.479s-4.939,1.254-6.38,0.196C104.676,258.352,103.03,258.969,103.03,258.969z"/>
		<path style="fill:#9595CE;" d="M142.339,238.594c0,0,4.939,0.617,6.792,0l-3.499-15.23
			C145.632,223.365,141.722,231.597,142.339,238.594z"/>
		<path style="fill:#2F2C75;" d="M130.608,282.431c-3.705-10.702-8.644-24.697-8.644-24.697c-2.058,2.47-9.467,1.479-9.467,1.479
			s-4.939,1.254-6.38,0.196c-1.441-1.058-3.087-0.44-3.087-0.44s-0.601,0.276-1.231,0.241l0,0
			c-18.107,32.347-22.848,71.586-22.848,71.586c24.08,18.317,70.181,4.939,70.181,4.939S134.313,293.133,130.608,282.431z"/>
		<path style="fill:#E5B389;" d="M145.632,223.365c0,0,3.91-0.206,7.615-1.441c3.705-1.235,47.953-22.845,47.953-22.845
			s3.499-5.763,6.174-6.997c2.676-1.235,15.024-6.174,17.082-6.38c2.058-0.206,2.058,1.646,0,2.881
			c-2.058,1.235-8.438,4.404-8.438,4.404s0.617,3.143,0.206,3.691c-0.412,0.549,0.823,2.607,0,3.43
			c-0.823,0.823,0.206,4.1-0.617,4.417c-0.823,0.317-3.293,2.581-12.143,1.757c0,0-44.66,27.373-47.953,28.402
			c-3.293,1.029-7.085,0.843-7.085,0.843L145.632,223.365z"/>
		<path style="fill:#E5B389;" d="M78.95,330.796c0,0-2.264,31.351-5.557,36.84c-3.293,5.488-14.269,28.539-18.66,49.394
			c-1.646,8.781-2.195,12.897-3.293,15.641c-1.098,2.744-1.098,2.744-1.098,2.744s3.567-1.372,4.391,4.665
			c0.823,6.037-0.274,8.232-0.274,8.232l1.646,6.311c0,0,3.842-2.47,6.586-3.567c0,0-0.823-9.33-2.195-15.641
			c0,0,3.019-9.33,12.623-26.343c9.604-17.013,11.8-26.069,14.269-31.008c2.47-4.939,8.51-10.184,17.015-38.159
			C104.403,339.905,90.818,339.234,78.95,330.796z"/>
		<path style="fill:#2F2C75;" d="M62.691,451.057c-2.744,1.098-6.586,3.567-6.586,3.567l-1.646-6.311c0,0,1.098-2.195,0.274-8.232
			c-0.542-3.975-2.269-4.733-3.389-4.791l-1.001,0.126c0,0-1.955,2.607-3.19,5.797c-1.235,3.19-4.528,9.982-4.528,9.982l1.132,0.72
			l6.586-7.924c0,0,1.955,7.272,2.367,10.633c0.412,3.362,0.72,4.288,7.409,4.391c6.689,0.103,13.789,0,13.789,0
			S75.04,452.36,62.691,451.057z"/>
		<path style="fill:#2F2C75;" d="M175.062,451.537c-4.116,0.549-7.409,3.979-7.409,3.979l-3.979-2.332c0,0-1.235-6.586-3.156-10.565
			c-1.921-3.979-6.449-3.43-6.449-3.43s-1.749,3.533-1.544,9.501c0.206,5.969,1.544,10.393,1.544,10.393h1.955
			c0,0,0.309-6.186,0.823-9.421c0,0,1.235,1.909,4.013,3.967s7.203,5.454,7.203,5.454h18.317
			C186.381,459.083,187.239,453.412,175.062,451.537z"/>
		<path style="fill:#E5B389;" d="M165.457,441.795c-1.646-2.058-2.607-4.665-3.43-11.525c-0.823-6.86-6.312-41.024-7.958-50.08
			c-1.646-9.055-1.098-13.446-2.47-22.776c-0.767-5.214-2.476-14.302-3.835-21.309c-3.673,0.955-14.369,3.484-26.922,4.17
			c2.761,6.261,6.701,14.165,10.725,18.786c3.842,5.214,3.842,9.879,3.842,14.269c0,4.391,4.391,23.599,10.428,37.32
			c6.037,13.72,8.232,28.539,8.232,28.539s4.528-0.549,6.449,3.43c1.921,3.979,3.156,10.565,3.156,10.565l3.979,2.332
			c0,0,3.293-3.43,7.409-3.979C175.062,451.537,167.104,443.853,165.457,441.795z"/>
		<g>
			<path style="fill:#E5B389;" d="M100.432,256.294c0.246-1.877-0.225-3.806-1.155-6.433c-0.036,0.105-11.071,32.373-14.769,37.099
				c-1.372,1.784-6.311,2.47-8.507,5.488c-2.195,3.019-6.586,3.842-6.86,5.214c-0.274,1.372-0.274,1.372-0.274,1.372
				s-1.509,1.646-1.509,2.47s0.96,1.647,0.96,1.647s-0.686,1.646-0.137,2.744c0.549,1.098,2.883,1.372,9.194-1.646
				c0,0-0.481,1.029,1.234,1.578c1.715,0.549,4.524-3.812,5.557-4.322c1.033-0.51,1.14-0.899,1.14-0.899l0.001-0.002
				c3.529-12.687,8.806-27.659,16.493-41.392l0,0C100.988,259.166,100.128,258.609,100.432,256.294z"/>
			<path style="fill:#E5B389;" d="M102.669,259.096c0.018-0.005,0.036-0.01,0.053-0.015
				C102.705,259.086,102.686,259.091,102.669,259.096z"/>
			<path style="fill:#E5B389;" d="M102.108,259.203c0.033-0.003,0.064-0.007,0.096-0.012
				C102.172,259.195,102.14,259.2,102.108,259.203z"/>
			<path style="fill:#E5B389;" d="M102.399,259.161c0.032-0.006,0.061-0.012,0.091-0.019
				C102.461,259.149,102.43,259.155,102.399,259.161z"/>
		</g>
		<path style="fill:none;stroke:#BF8E6A;stroke-width:0.823;stroke-linecap:round;stroke-miterlimit:10;" d="M77.373,304.247
			c0,0,1.371-1.784,3.018-3.43c1.646-1.646,1.646-1.646,1.646-1.646s-1.509-4.665,3.979-8.987"/>
		
			<line style="fill:none;stroke:#2F2C75;stroke-linecap:round;stroke-miterlimit:10;" x1="125.257" y1="229.745" x2="108.833" y2="223.365"/>
		<path style="fill:none;stroke:#2F2C75;stroke-linecap:round;stroke-miterlimit:10;" d="M105.712,259.161
			c0,0-1.649-0.974-2.649-2.849"/>
		<path style="fill:none;stroke:#2F2C75;stroke-linecap:round;stroke-miterlimit:10;" d="M112.497,259.214
			c0,0,1.941-0.526,3.316-2.901"/>
	</g>
</g>
<g id="DESIGNED_BY_FREEPIK">
	<g>
		<g id="XMLID_319_">
			<g id="XMLID_338_">
				<path id="XMLID_346_" style="fill:#1D262D;" d="M260.104,474.465c-0.432,0.443-0.803,0.931-1.108,1.453l-0.465-0.241
					c-0.067-0.298-0.349-0.503-0.659-0.466c-0.331,0.039-0.568,0.339-0.529,0.67s0.339,0.568,0.67,0.529
					c0.065-0.008,0.127-0.026,0.184-0.052l0.451,0.234c-0.251,0.554-0.433,1.139-0.539,1.744l0.746,0.132
					c0.23-1.306,0.85-2.507,1.792-3.473L260.104,474.465z"/>
				<path id="XMLID_345_" style="fill:#1D262D;" d="M265.592,472.163c-0.171,0-0.341,0.006-0.51,0.017l-0.074-0.626
					c0.188-0.149,0.296-0.389,0.266-0.645c-0.046-0.393-0.402-0.674-0.795-0.628s-0.674,0.402-0.628,0.795
					c0.03,0.254,0.189,0.461,0.405,0.564l0.073,0.624c-0.714,0.116-1.403,0.332-2.06,0.646l0.327,0.684
					c0.934-0.447,1.942-0.673,2.995-0.673c0.496,0,0.993,0.053,1.475,0.158l0.161-0.741
					C266.693,472.222,266.142,472.163,265.592,472.163z"/>
				<path id="XMLID_344_" style="fill:#1D262D;" d="M272.194,474.711c0.331-0.04,0.566-0.341,0.525-0.672
					c-0.04-0.331-0.341-0.566-0.672-0.526c-0.309,0.038-0.535,0.304-0.53,0.609l-0.416,0.363c-0.418-0.43-0.89-0.813-1.408-1.139
					l-0.404,0.641c1.134,0.715,2.021,1.726,2.563,2.925l0.691-0.313c-0.251-0.554-0.568-1.072-0.942-1.545l0.402-0.351
					C272.065,474.716,272.129,474.719,272.194,474.711z"/>
				<path id="XMLID_343_" style="fill:#1D262D;" d="M265.044,482.372c-0.386,0.023-0.775,0.035-1.157,0.035
					c-0.88,0-1.733-0.061-2.478-0.179c-0.39-0.062-0.846-0.155-1.27-0.292c1.046,1.861,3.069,3.125,5.388,3.125
					c2.855,0,5.262-1.916,5.95-4.504c-0.682,0.449-1.505,0.825-2.459,1.123C267.839,482.047,266.464,482.286,265.044,482.372z"/>
				<path id="XMLID_339_" style="fill:#1D262D;" d="M265.592,473.68c-3.352,0-6.08,2.666-6.08,5.943
					c0,0.426,0.046,0.849,0.137,1.261c0.674,0.483,2.706,0.89,5.348,0.731c2.879-0.173,5.297-0.957,6.672-2.159
					c-0.005-0.195-0.021-0.39-0.045-0.582C271.244,475.913,268.65,473.68,265.592,473.68z M263.432,480.194
					c-1.02,0-1.85-0.83-1.85-1.85c0-1.02,0.83-1.85,1.85-1.85c1.02,0,1.85,0.83,1.85,1.85
					C265.282,479.365,264.452,480.194,263.432,480.194z M268.17,479.286c-0.75,0-1.36-0.61-1.36-1.36s0.61-1.361,1.36-1.361
					c0.75,0,1.361,0.61,1.361,1.361S268.92,479.286,268.17,479.286z"/>
			</g>
			<path id="XMLID_336_" style="fill:#1D262D;" d="M281.595,475.547c-0.295-0.116-0.806-0.309-1.382-0.237
				c-0.551,0.069-0.844,0.341-0.844,1.007v0.866h2.228v1.717h-2.228v5.455h-1.932v-5.455h-1.34v-1.717h1.34v-0.888
				c0-1.68,0.896-2.783,2.568-2.783c0.642,0,1.157,0.122,1.59,0.308L281.595,475.547z"/>
			<path id="XMLID_334_" style="fill:#1D262D;" d="M286.298,478.879c-0.177-0.03-0.358-0.046-0.526-0.046
				c-0.896,0-1.51,0.548-1.51,1.614v3.908h-1.932v-7.172h1.873v0.785c0.451-0.673,1.14-0.977,2.021-0.977
				c0.414,0,0.848,0.128,1.094,0.337L286.298,478.879z"/>
			<path id="XMLID_331_" style="fill:#1D262D;" d="M293.965,480.757c0,0.222-0.015,0.489-0.037,0.651h-5.085
				c0.207,1.036,0.933,1.488,1.843,1.488c0.622,0,1.295-0.252,1.813-0.688l1.132,1.243c-0.814,0.748-1.85,1.088-3.057,1.088
				c-2.198,0-3.723-1.495-3.723-3.753c0-2.258,1.48-3.797,3.627-3.797C292.544,476.99,293.958,478.522,293.965,480.757z
				 M288.851,480.091h3.175c-0.177-0.918-0.733-1.436-1.562-1.436C289.554,478.655,289.021,479.203,288.851,480.091z"/>
			<path id="XMLID_328_" style="fill:#1D262D;" d="M301.618,480.757c0,0.222-0.015,0.489-0.037,0.651h-5.085
				c0.207,1.036,0.932,1.488,1.843,1.488c0.622,0,1.295-0.252,1.813-0.688l1.132,1.243c-0.814,0.748-1.85,1.088-3.057,1.088
				c-2.198,0-3.723-1.495-3.723-3.753c0-2.258,1.48-3.797,3.627-3.797C300.197,476.99,301.611,478.522,301.618,480.757z
				 M296.504,480.091h3.175c-0.178-0.918-0.733-1.436-1.562-1.436C297.207,478.655,296.674,479.203,296.504,480.091z"/>
			<path id="XMLID_325_" style="fill:#1D262D;" d="M309.964,480.764c0,2.154-1.495,3.775-3.471,3.775
				c-0.962,0-1.643-0.378-2.109-0.933v3.708h-1.924v-10.133h1.887v0.792c0.466-0.585,1.155-0.984,2.139-0.984
				C308.469,476.99,309.964,478.61,309.964,480.764z M304.287,480.764c0,1.132,0.747,1.976,1.843,1.976
				c1.14,0,1.85-0.881,1.85-1.976c0-1.095-0.71-1.976-1.85-1.976C305.035,478.788,304.287,479.632,304.287,480.764z"/>
			<path id="XMLID_322_" style="fill:#1D262D;" d="M313.068,474.836c0,0.696-0.54,1.229-1.236,1.229
				c-0.696,0-1.229-0.533-1.229-1.229c0-0.696,0.533-1.243,1.229-1.243C312.527,473.592,313.068,474.14,313.068,474.836z
				 M312.809,484.354h-1.932v-7.172h1.932V484.354z"/>
			<path id="XMLID_320_" style="fill:#1D262D;" d="M316.032,479.736l2.702-2.554h2.368l-3.479,3.375l3.501,3.797h-2.376
				l-2.716-2.901v2.901H314.1v-10.658h1.932V479.736z"/>
		</g>
		<g>
			<path style="fill:#1D262D;" d="M184.412,484.289v-1.055c-0.527,0.718-1.391,1.23-2.387,1.23c-1.846,0-3.149-1.406-3.149-3.706
				c0-2.256,1.289-3.721,3.149-3.721c0.952,0,1.816,0.469,2.387,1.245v-3.765h1.099v9.77H184.412z M184.412,482.37v-3.208
				c-0.395-0.615-1.245-1.143-2.124-1.143c-1.421,0-2.27,1.172-2.27,2.739c0,1.567,0.85,2.724,2.27,2.724
				C183.168,483.483,184.017,482.986,184.412,482.37z"/>
			<path style="fill:#1D262D;" d="M186.932,480.744c0-2.051,1.465-3.706,3.486-3.706c2.139,0,3.398,1.67,3.398,3.794v0.279h-5.727
				c0.088,1.333,1.025,2.446,2.549,2.446c0.805,0,1.626-0.322,2.182-0.894l0.527,0.718c-0.703,0.703-1.655,1.084-2.812,1.084
				C188.44,484.465,186.932,482.956,186.932,480.744z M190.403,477.947c-1.509,0-2.256,1.274-2.314,2.358h4.643
				C192.718,479.25,192.015,477.947,190.403,477.947z"/>
			<path style="fill:#1D262D;" d="M194.607,483.351l0.571-0.791c0.469,0.542,1.362,1.011,2.329,1.011c1.084,0,1.67-0.513,1.67-1.216
				c0-1.714-4.38-0.659-4.38-3.281c0-1.098,0.952-2.036,2.636-2.036c1.201,0,2.051,0.454,2.622,1.026l-0.513,0.762
				c-0.424-0.513-1.201-0.894-2.109-0.894c-0.967,0-1.567,0.483-1.567,1.113c0,1.552,4.38,0.527,4.38,3.281
				c0,1.187-0.952,2.138-2.783,2.138C196.306,484.465,195.325,484.113,194.607,483.351z"/>
			<path style="fill:#1D262D;" d="M201.477,475.471c0-0.41,0.337-0.747,0.732-0.747c0.41,0,0.747,0.337,0.747,0.747
				c0,0.41-0.337,0.732-0.747,0.732C201.814,476.203,201.477,475.881,201.477,475.471z M201.667,484.289v-7.075h1.099v7.075H201.667
				z"/>
			<path style="fill:#1D262D;" d="M204.582,486.105l0.556-0.82c0.586,0.703,1.289,0.967,2.3,0.967c1.172,0,2.27-0.571,2.27-2.124
				v-1.011c-0.513,0.718-1.377,1.26-2.373,1.26c-1.845,0-3.149-1.377-3.149-3.662c0-2.27,1.289-3.677,3.149-3.677
				c0.952,0,1.802,0.469,2.373,1.245v-1.069h1.098v6.87c0,2.344-1.641,3.076-3.369,3.076
				C206.237,487.16,205.417,486.926,204.582,486.105z M209.709,482.253v-3.091c-0.381-0.615-1.23-1.143-2.109-1.143
				c-1.421,0-2.27,1.128-2.27,2.695c0,1.553,0.849,2.695,2.27,2.695C208.478,483.41,209.328,482.868,209.709,482.253z"/>
			<path style="fill:#1D262D;" d="M217.413,484.289v-4.629c0-1.245-0.63-1.641-1.582-1.641c-0.865,0-1.685,0.527-2.095,1.099v5.17
				h-1.099v-7.075h1.099v1.025c0.498-0.586,1.464-1.201,2.519-1.201c1.48,0,2.256,0.747,2.256,2.285v4.966H217.413z"/>
			<path style="fill:#1D262D;" d="M219.932,480.744c0-2.051,1.465-3.706,3.486-3.706c2.139,0,3.398,1.67,3.398,3.794v0.279h-5.727
				c0.088,1.333,1.025,2.446,2.549,2.446c0.806,0,1.626-0.322,2.183-0.894l0.527,0.718c-0.703,0.703-1.655,1.084-2.812,1.084
				C221.441,484.465,219.932,482.956,219.932,480.744z M223.404,477.947c-1.509,0-2.256,1.274-2.314,2.358h4.643
				C225.718,479.25,225.015,477.947,223.404,477.947z"/>
			<path style="fill:#1D262D;" d="M233.35,484.289v-1.055c-0.527,0.718-1.392,1.23-2.388,1.23c-1.846,0-3.149-1.406-3.149-3.706
				c0-2.256,1.289-3.721,3.149-3.721c0.952,0,1.817,0.469,2.388,1.245v-3.765h1.098v9.77H233.35z M233.35,482.37v-3.208
				c-0.396-0.615-1.245-1.143-2.124-1.143c-1.421,0-2.27,1.172-2.27,2.739c0,1.567,0.849,2.724,2.27,2.724
				C232.105,483.483,232.954,482.986,233.35,482.37z"/>
			<path style="fill:#1D262D;" d="M239.692,484.289v-9.77h1.098v3.765c0.572-0.776,1.421-1.245,2.388-1.245
				c1.845,0,3.149,1.465,3.149,3.721c0,2.299-1.304,3.706-3.149,3.706c-0.996,0-1.86-0.513-2.388-1.23v1.055H239.692z
				 M242.9,483.483c1.436,0,2.285-1.157,2.285-2.724c0-1.568-0.85-2.739-2.285-2.739c-0.864,0-1.728,0.527-2.109,1.143v3.208
				C241.171,482.986,242.036,483.483,242.9,483.483z"/>
			<path style="fill:#1D262D;" d="M247.528,486.061c0.161,0.073,0.425,0.117,0.601,0.117c0.483,0,0.805-0.161,1.055-0.747
				l0.469-1.069l-2.959-7.148h1.187l2.358,5.8l2.344-5.8h1.201l-3.545,8.51c-0.425,1.025-1.143,1.421-2.08,1.435
				c-0.234,0-0.601-0.044-0.805-0.103L247.528,486.061z"/>
		</g>
	</g>
</g>
</svg>
